<svg version="1.0" xmlns="http://www.w3.org/2000/svg" width="20pt" height="20pt" viewBox="0 0 512 512" preserveAspectRatio="xMidYMid meet">
  <g transform="translate(0,512) scale(0.1,-0.1)" fill="#fc7474" stroke="none">
    <path d="M2490 5109 c-27 -7 -153 -129 -583 -562 -362 -364 -555 -566 -568
-592 -54 -115 26 -261 150 -273 111 -10 91 -25 498 381 l373 371 2 -2149 3
-2150 24 -38 c13 -21 42 -50 64 -65 34 -23 52 -27 107 -27 55 0 73 4 107 27
22 15 51 44 64 65 l24 38 3 2150 2 2149 373 -371 c407 -406 387 -391 498 -381
122 12 204 157 151 270 -19 42 -1062 1104 -1117 1138 -40 25 -124 34 -175 19z"/>
  </g>
</svg>
